<svg width="89" height="60" viewBox="0 0 89 60" fill="none" xmlns="http://www.w3.org/2000/svg">
<rect x="1" y="0.5" width="87" height="59" rx="15.5" fill="white"/>
<rect x="1" y="0.5" width="87" height="59" rx="15.5" stroke="#EEEEEE"/>
<g clip-path="url(#clip0_727_25941)">
<path d="M49.273 18.012C49.222 17.955 47.3845 18.0345 45.7855 19.77C44.1865 21.504 44.4325 23.493 44.4685 23.544C44.5045 23.595 46.7485 23.6745 48.181 21.657C49.6135 19.6395 49.324 18.0705 49.273 18.012ZM54.244 35.6115C54.172 35.4675 50.7565 33.7605 51.0745 30.4785C51.3925 27.195 53.587 26.295 53.6215 26.1975C53.656 26.1 52.726 25.0125 51.7405 24.462C51.0169 24.0739 50.2161 23.8515 49.396 23.811C49.234 23.8065 48.6715 23.6685 47.515 23.985C46.753 24.1935 45.0355 24.8685 44.563 24.8955C44.089 24.9225 42.679 24.1125 41.1625 23.898C40.192 23.7105 39.163 24.0945 38.4265 24.39C37.6915 24.684 36.2935 25.521 35.3155 27.7455C34.3375 29.9685 34.849 33.4905 35.215 34.5855C35.581 35.679 36.1525 37.4715 37.1245 38.7795C37.9885 40.2555 39.1345 41.28 39.613 41.628C40.0915 41.976 41.4415 42.207 42.3775 41.7285C43.1305 41.2665 44.4895 41.001 45.0265 41.0205C45.562 41.04 46.618 41.2515 47.6995 41.829C48.556 42.1245 49.366 42.0015 50.1775 41.6715C50.989 41.34 52.1635 40.083 53.5345 37.5345C54.055 36.3495 54.292 35.709 54.244 35.6115Z" fill="black"/>
<path d="M49.273 18.012C49.222 17.955 47.3845 18.0345 45.7855 19.77C44.1865 21.504 44.4325 23.493 44.4685 23.544C44.5045 23.595 46.7485 23.6745 48.181 21.657C49.6135 19.6395 49.324 18.0705 49.273 18.012ZM54.244 35.6115C54.172 35.4675 50.7565 33.7605 51.0745 30.4785C51.3925 27.195 53.587 26.295 53.6215 26.1975C53.656 26.1 52.726 25.0125 51.7405 24.462C51.0169 24.0739 50.2161 23.8515 49.396 23.811C49.234 23.8065 48.6715 23.6685 47.515 23.985C46.753 24.1935 45.0355 24.8685 44.563 24.8955C44.089 24.9225 42.679 24.1125 41.1625 23.898C40.192 23.7105 39.163 24.0945 38.4265 24.39C37.6915 24.684 36.2935 25.521 35.3155 27.7455C34.3375 29.9685 34.849 33.4905 35.215 34.5855C35.581 35.679 36.1525 37.4715 37.1245 38.7795C37.9885 40.2555 39.1345 41.28 39.613 41.628C40.0915 41.976 41.4415 42.207 42.3775 41.7285C43.1305 41.2665 44.4895 41.001 45.0265 41.0205C45.562 41.04 46.618 41.2515 47.6995 41.829C48.556 42.1245 49.366 42.0015 50.1775 41.6715C50.989 41.34 52.1635 40.083 53.5345 37.5345C54.055 36.3495 54.292 35.709 54.244 35.6115Z" fill="black"/>
</g>
<defs>
<clipPath id="clip0_727_25941">
<rect width="24" height="24" fill="white" transform="translate(32.5 18)"/>
</clipPath>
</defs>
</svg>
