<svg width="11" height="14" viewBox="0 0 11 14" fill="none" xmlns="http://www.w3.org/2000/svg">
<path fill-rule="evenodd" clip-rule="evenodd" d="M3.5625 0.629883H7.41875C9.1125 0.629883 10.4812 1.31426 10.5 3.05398V12.7631C10.5 12.8719 10.475 12.9806 10.425 13.0766C10.3438 13.2301 10.2063 13.3452 10.0375 13.3964C9.875 13.4475 9.69375 13.4219 9.54375 13.3324L5.49375 11.2601L1.4375 13.3324C1.34438 13.3829 1.2375 13.4155 1.13125 13.4155C0.78125 13.4155 0.5 13.1213 0.5 12.7631V3.05398C0.5 1.31426 1.875 0.629883 3.5625 0.629883ZM3.1375 5.50365H7.84375C8.1125 5.50365 8.33125 5.27915 8.33125 4.99837C8.33125 4.71694 8.1125 4.49308 7.84375 4.49308H3.1375C2.86875 4.49308 2.65 4.71694 2.65 4.99837C2.65 5.27915 2.86875 5.50365 3.1375 5.50365Z" fill="white"/>
</svg>
