<svg width="16" height="16" viewBox="0 0 16 16" fill="none" xmlns="http://www.w3.org/2000/svg">
<circle cx="8" cy="8" r="8" fill="white"/>
<path d="M11.125 11.125H4.875C4.70924 11.125 4.55027 11.0592 4.43306 10.9419C4.31585 10.8247 4.25 10.6658 4.25 10.5V6.125C4.25 5.95924 4.31585 5.80027 4.43306 5.68306C4.55027 5.56585 4.70924 5.5 4.875 5.5H6.12477L6.74977 4.5625H9.24977L9.87477 5.5H11.125C11.2908 5.5 11.4497 5.56585 11.5669 5.68306C11.6842 5.80027 11.75 5.95924 11.75 6.125V10.5C11.75 10.6658 11.6842 10.8247 11.5669 10.9419C11.4497 11.0592 11.2908 11.125 11.125 11.125Z" stroke="#199A8E" stroke-linecap="round" stroke-linejoin="round"/>
<path d="M8 9.5625C8.77665 9.5625 9.40625 8.9329 9.40625 8.15625C9.40625 7.3796 8.77665 6.75 8 6.75C7.22335 6.75 6.59375 7.3796 6.59375 8.15625C6.59375 8.9329 7.22335 9.5625 8 9.5625Z" stroke="#199A8E" stroke-linecap="round" stroke-linejoin="round"/>
</svg>
