<svg width="43" height="43" viewBox="0 0 43 43" fill="none" xmlns="http://www.w3.org/2000/svg">
<circle cx="21.5" cy="21.5" r="21.5" fill="#E8F3F1"/>
<mask id="mask0_1_1167" style="mask-type:luminance" maskUnits="userSpaceOnUse" x="10" y="11" width="22" height="22">
<path fill-rule="evenodd" clip-rule="evenodd" d="M10 11.0002H31.493V32.494H10V11.0002Z" fill="white"/>
</mask>
<g mask="url(#mask0_1_1167)">
<path fill-rule="evenodd" clip-rule="evenodd" d="M15.1084 29.6752C15.6884 29.6752 16.2354 29.8952 16.8144 30.1282C20.3614 31.7682 24.5564 31.0222 27.2894 28.2902C30.8954 24.6822 30.8954 18.8132 27.2894 15.2072C25.5434 13.4612 23.2214 12.5002 20.7494 12.5002C18.2764 12.5002 15.9534 13.4622 14.2084 15.2082C11.4744 17.9402 10.7304 22.1352 12.3554 25.6482C12.5894 26.2272 12.8154 26.7912 12.8154 27.3772C12.8154 27.9622 12.6144 28.5512 12.4374 29.0712C12.2914 29.4992 12.0704 30.1452 12.2124 30.2872C12.3514 30.4312 13.0014 30.2042 13.4304 30.0572C13.9454 29.8812 14.5294 29.6792 15.1084 29.6752ZM20.7244 32.4942C19.1964 32.4942 17.6584 32.1712 16.2194 31.5052C15.7954 31.3352 15.3984 31.1752 15.1134 31.1752C14.7854 31.1772 14.3444 31.3292 13.9184 31.4762C13.0444 31.7762 11.9564 32.1502 11.1514 31.3482C10.3494 30.5452 10.7194 29.4602 11.0174 28.5872C11.1644 28.1572 11.3154 27.7132 11.3154 27.3772C11.3154 27.1012 11.1824 26.7492 10.9784 26.2422C9.10544 22.1972 9.97144 17.3222 13.1484 14.1472C15.1764 12.1182 17.8754 11.0002 20.7484 11.0002C23.6214 11.0002 26.3214 12.1172 28.3494 14.1462C32.5414 18.3382 32.5414 25.1582 28.3494 29.3502C26.2944 31.4062 23.5274 32.4942 20.7244 32.4942Z" fill="#199A8E"/>
</g>
<path fill-rule="evenodd" clip-rule="evenodd" d="M24.6963 23.1628C24.1443 23.1628 23.6923 22.7158 23.6923 22.1628C23.6923 21.6098 24.1353 21.1628 24.6873 21.1628H24.6963C25.2483 21.1628 25.6963 21.6098 25.6963 22.1628C25.6963 22.7158 25.2483 23.1628 24.6963 23.1628Z" fill="#199A8E"/>
<path fill-rule="evenodd" clip-rule="evenodd" d="M20.6875 23.1628C20.1355 23.1628 19.6835 22.7158 19.6835 22.1628C19.6835 21.6098 20.1255 21.1628 20.6785 21.1628H20.6875C21.2395 21.1628 21.6875 21.6098 21.6875 22.1628C21.6875 22.7158 21.2395 23.1628 20.6875 23.1628Z" fill="#199A8E"/>
<path fill-rule="evenodd" clip-rule="evenodd" d="M16.6783 23.1628C16.1263 23.1628 15.6743 22.7158 15.6743 22.1628C15.6743 21.6098 16.1173 21.1628 16.6693 21.1628H16.6783C17.2303 21.1628 17.6783 21.6098 17.6783 22.1628C17.6783 22.7158 17.2303 23.1628 16.6783 23.1628Z" fill="#199A8E"/>
</svg>
