<svg width="88" height="60" viewBox="0 0 88 60" fill="none" xmlns="http://www.w3.org/2000/svg">
<rect x="1" y="0.5" width="86" height="59" rx="15.5" fill="white"/>
<rect x="1" y="0.5" width="86" height="59" rx="15.5" stroke="#EEEEEE"/>
<g clip-path="url(#clip0_727_25940)">
<path d="M55.5078 30.2244C55.5078 29.2412 55.4295 28.5236 55.2598 27.7795H44.2295V32.2175H50.7041C50.5736 33.3204 49.8687 34.9814 48.3022 36.0975L48.2802 36.246L51.7678 38.9962L52.0095 39.0208C54.2285 36.9346 55.5078 33.8652 55.5078 30.2244Z" fill="#4285F4"/>
<path d="M44.2294 41.9176C47.4014 41.9176 50.0643 40.8545 52.0094 39.0209L48.3021 36.0976C47.3101 36.8018 45.9786 37.2934 44.2294 37.2934C41.1227 37.2934 38.4859 35.2074 37.5459 32.324L37.4081 32.3359L33.7817 35.1927L33.7343 35.3269C35.6662 39.2334 39.6345 41.9176 44.2294 41.9176Z" fill="#34A853"/>
<path d="M37.5461 32.324C37.2981 31.58 37.1545 30.7826 37.1545 29.9589C37.1545 29.135 37.2981 28.3378 37.533 27.5937L37.5265 27.4352L33.8546 24.5325L33.7344 24.5906C32.9382 26.2117 32.4813 28.0322 32.4813 29.9589C32.4813 31.8855 32.9382 33.7059 33.7344 35.327L37.5461 32.324Z" fill="#FBBC05"/>
<path d="M44.2294 22.624C46.4355 22.624 47.9235 23.594 48.7721 24.4046L52.0877 21.1093C50.0514 19.1826 47.4014 18 44.2294 18C39.6345 18 35.6662 20.6841 33.7343 24.5906L37.5329 27.5936C38.4859 24.7102 41.1227 22.624 44.2294 22.624Z" fill="#EB4335"/>
</g>
<defs>
<clipPath id="clip0_727_25940">
<rect width="23.04" height="24" fill="white" transform="translate(32.48 18)"/>
</clipPath>
</defs>
</svg>
