<svg width="24" height="24" viewBox="0 0 24 24" fill="none" xmlns="http://www.w3.org/2000/svg">
<g clip-path="url(#clip0_2245_4794)">
<path d="M23.5078 12.2244C23.5078 11.2412 23.4295 10.5236 23.2598 9.77954H12.2295V14.2175H18.7041C18.5736 15.3204 17.8687 16.9814 16.3022 18.0975L16.2802 18.246L19.7678 20.9962L20.0095 21.0208C22.2285 18.9346 23.5078 15.8652 23.5078 12.2244Z" fill="#4285F4"/>
<path d="M12.2294 23.9176C15.4014 23.9176 18.0643 22.8545 20.0094 21.0209L16.3021 18.0976C15.3101 18.8018 13.9786 19.2934 12.2294 19.2934C9.12268 19.2934 6.48586 17.2074 5.5459 14.324L5.40813 14.3359L1.78168 17.1927L1.73425 17.3269C3.66618 21.2334 7.6345 23.9176 12.2294 23.9176Z" fill="#34A853"/>
<path d="M5.54609 14.324C5.29808 13.58 5.15454 12.7826 5.15454 11.9589C5.15454 11.135 5.29808 10.3378 5.53304 9.59366L5.52647 9.43519L1.85458 6.53247L1.73444 6.59064C0.938206 8.21174 0.481323 10.0322 0.481323 11.9589C0.481323 13.8855 0.938206 15.7059 1.73444 17.327L5.54609 14.324Z" fill="#FBBC05"/>
<path d="M12.2294 4.62403C14.4355 4.62403 15.9235 5.59401 16.7721 6.40461L20.0877 3.10928C18.0514 1.1826 15.4014 0 12.2294 0C7.63449 0 3.66617 2.68406 1.73425 6.59056L5.53285 9.59359C6.48585 6.7102 9.12267 4.62403 12.2294 4.62403Z" fill="#EB4335"/>
</g>
<defs>
<clipPath id="clip0_2245_4794">
<rect width="23.04" height="24" fill="white" transform="translate(0.47998)"/>
</clipPath>
</defs>
</svg>
