<svg width="21" height="22" viewBox="0 0 21 22" fill="none" xmlns="http://www.w3.org/2000/svg">
<mask id="mask0_1_1953" style="mask-type:luminance" maskUnits="userSpaceOnUse" x="0" y="0" width="21" height="22">
<path fill-rule="evenodd" clip-rule="evenodd" d="M0 0.000244141H20.4998V21.5052H0V0.000244141Z" fill="white"/>
</mask>
<g mask="url(#mask0_1_1953)">
<path fill-rule="evenodd" clip-rule="evenodd" d="M11.7168 14.2913C12.9208 14.2913 13.9008 15.2643 13.9008 16.4603V19.5362C13.9008 19.7932 14.1068 19.9992 14.3708 20.0052H16.2768C17.7788 20.0052 18.9998 18.7993 18.9998 17.3173V8.59325C18.9928 8.08325 18.7498 7.60325 18.3328 7.28425L11.7398 2.02625C10.8548 1.32525 9.61676 1.32525 8.72876 2.02825L2.18076 7.28225C1.74776 7.61125 1.50476 8.09125 1.49976 8.61025V17.3173C1.49976 18.7993 2.72076 20.0052 4.22276 20.0052H6.14676C6.41776 20.0052 6.63776 19.7902 6.63776 19.5262C6.63776 19.4682 6.64476 19.4102 6.65676 19.3552V16.4603C6.65676 15.2713 7.63076 14.2993 8.82576 14.2913H11.7168ZM16.2768 21.5053H14.3528C13.2508 21.4793 12.4008 20.6143 12.4008 19.5363V16.4603C12.4008 16.0913 12.0938 15.7913 11.7168 15.7913H8.83076C8.46176 15.7933 8.15676 16.0943 8.15676 16.4603V19.5263C8.15676 19.6013 8.14676 19.6733 8.12576 19.7413C8.01776 20.7313 7.17176 21.5053 6.14676 21.5053H4.22276C1.89376 21.5053 -0.000244141 19.6262 -0.000244141 17.3172V8.60325C0.00975586 7.60925 0.467756 6.69925 1.25876 6.10025L7.79376 0.85525C9.23276 -0.28475 11.2378 -0.28475 12.6738 0.85325L19.2558 6.10325C20.0288 6.69225 20.4868 7.60025 20.4998 8.58225V17.3172C20.4998 19.6262 18.6058 21.5053 16.2768 21.5053Z" fill="#ADADAD"/>
</g>
</svg>
