<svg width="43" height="43" viewBox="0 0 43 43" fill="none" xmlns="http://www.w3.org/2000/svg">
<circle cx="21.5" cy="21.5" r="21.5" fill="#E8F3F1"/>
<path fill-rule="evenodd" clip-rule="evenodd" d="M21 13.5C16.313 13.5 12.5 17.313 12.5 22C12.5 26.687 16.313 30.5 21 30.5C25.687 30.5 29.5 26.687 29.5 22C29.5 17.313 25.687 13.5 21 13.5ZM21 32C15.486 32 11 27.514 11 22C11 16.486 15.486 12 21 12C26.514 12 31 16.486 31 22C31 27.514 26.514 32 21 32Z" fill="#FE5C5C"/>
<path fill-rule="evenodd" clip-rule="evenodd" d="M20.9941 23.3731C20.5801 23.3731 20.2441 23.0371 20.2441 22.6231V18.2041C20.2441 17.7901 20.5801 17.4541 20.9941 17.4541C21.4081 17.4541 21.7441 17.7901 21.7441 18.2041V22.6231C21.7441 23.0371 21.4081 23.3731 20.9941 23.3731Z" fill="#FE5C5C"/>
<path fill-rule="evenodd" clip-rule="evenodd" d="M21.0039 26.7959C20.4509 26.7959 19.9989 26.3489 19.9989 25.7959C19.9989 25.2429 20.4419 24.7959 20.9939 24.7959H21.0039C21.5569 24.7959 22.0039 25.2429 22.0039 25.7959C22.0039 26.3489 21.5569 26.7959 21.0039 26.7959Z" fill="#FE5C5C"/>
</svg>
