<svg width="20" height="18" viewBox="0 0 20 18" fill="none" xmlns="http://www.w3.org/2000/svg">
<path fill-rule="evenodd" clip-rule="evenodd" d="M14.9394 0C16.2804 0 17.5704 0.53 18.5194 1.481C19.4694 2.43 20.0004 3.71 20.0004 5.05V12.95C20.0004 15.74 17.7304 18 14.9394 18H5.06037C2.26937 18 0.000366211 15.74 0.000366211 12.95V5.05C0.000366211 2.26 2.25937 0 5.06037 0H14.9394ZM16.5304 6.54L16.6104 6.46C16.8494 6.17 16.8494 5.75 16.5994 5.46C16.4604 5.311 16.2694 5.22 16.0704 5.2C15.8604 5.189 15.6604 5.26 15.5094 5.4L11.0004 9C10.4204 9.481 9.58937 9.481 9.00037 9L4.50037 5.4C4.18937 5.17 3.75937 5.2 3.50037 5.47C3.23037 5.74 3.20037 6.17 3.42937 6.47L3.56037 6.6L8.11037 10.15C8.67037 10.59 9.34937 10.83 10.0604 10.83C10.7694 10.83 11.4604 10.59 12.0194 10.15L16.5304 6.54Z" fill="#199A8E"/>
</svg>
