<svg width="43" height="43" viewBox="0 0 43 43" fill="none" xmlns="http://www.w3.org/2000/svg">
<circle cx="21.5" cy="21.5" r="21.5" fill="#E8F3F1"/>
<mask id="mask0_1_1145" style="mask-type:luminance" maskUnits="userSpaceOnUse" x="11" y="13" width="21" height="20">
<path fill-rule="evenodd" clip-rule="evenodd" d="M11 13H31.4725V32.501H11V13Z" fill="white"/>
</mask>
<g mask="url(#mask0_1_1145)">
<path fill-rule="evenodd" clip-rule="evenodd" d="M12.8237 22.1231C14.2257 26.4851 19.7647 30.0121 21.2367 30.8851C22.7137 30.0031 28.2927 26.4371 29.6497 22.1271C30.5407 19.3411 29.7137 15.8121 26.4277 14.7531C24.8357 14.2421 22.9787 14.5531 21.6967 15.5451C21.4287 15.7511 21.0567 15.7551 20.7867 15.5511C19.4287 14.5301 17.6547 14.2311 16.0377 14.7531C12.7567 15.8111 11.9327 19.3401 12.8237 22.1231ZM21.2377 32.5011C21.1137 32.5011 20.9907 32.4711 20.8787 32.4101C20.5657 32.2391 13.1927 28.1751 11.3957 22.5811C11.3947 22.5811 11.3947 22.5801 11.3947 22.5801C10.2667 19.0581 11.5227 14.6321 15.5777 13.3251C17.4817 12.7091 19.5567 12.9801 21.2347 14.0391C22.8607 13.0111 25.0207 12.7271 26.8867 13.3251C30.9457 14.6341 32.2057 19.0591 31.0787 22.5801C29.3397 28.1101 21.9127 32.2351 21.5977 32.4081C21.4857 32.4701 21.3617 32.5011 21.2377 32.5011Z" fill="#199A8E"/>
</g>
<path fill-rule="evenodd" clip-rule="evenodd" d="M27.1537 20.625C26.7667 20.625 26.4387 20.328 26.4067 19.936C26.3407 19.114 25.7907 18.42 25.0077 18.167C24.6127 18.039 24.3967 17.616 24.5237 17.223C24.6527 16.829 25.0717 16.615 25.4677 16.739C26.8307 17.18 27.7857 18.387 27.9027 19.814C27.9357 20.227 27.6287 20.589 27.2157 20.622C27.1947 20.624 27.1747 20.625 27.1537 20.625Z" fill="#199A8E"/>
</svg>
