<svg width="43" height="43" viewBox="0 0 43 43" fill="none" xmlns="http://www.w3.org/2000/svg">
<circle cx="21.5" cy="21.5" r="21.5" fill="#E8F3F1"/>
<path fill-rule="evenodd" clip-rule="evenodd" d="M30.8887 24.8957H26.8407C24.9437 24.8957 23.3997 23.3527 23.3987 21.4567C23.3987 19.5587 24.9427 18.0147 26.8407 18.0137H30.8887C31.3027 18.0137 31.6387 18.3497 31.6387 18.7637C31.6387 19.1777 31.3027 19.5137 30.8887 19.5137H26.8407C25.7697 19.5147 24.8987 20.3857 24.8987 21.4557C24.8987 22.5247 25.7707 23.3957 26.8407 23.3957H30.8887C31.3027 23.3957 31.6387 23.7317 31.6387 24.1457C31.6387 24.5597 31.3027 24.8957 30.8887 24.8957Z" fill="#199A8E"/>
<path fill-rule="evenodd" clip-rule="evenodd" d="M27.2983 22.1436H26.9863C26.5723 22.1436 26.2363 21.8076 26.2363 21.3936C26.2363 20.9796 26.5723 20.6436 26.9863 20.6436H27.2983C27.7123 20.6436 28.0483 20.9796 28.0483 21.3936C28.0483 21.8076 27.7123 22.1436 27.2983 22.1436Z" fill="#199A8E"/>
<mask id="mask0_1_1161" style="mask-type:luminance" maskUnits="userSpaceOnUse" x="11" y="12" width="21" height="20">
<path fill-rule="evenodd" clip-rule="evenodd" d="M11 12H31.6386V31.1729H11V12Z" fill="white"/>
</mask>
<g mask="url(#mask0_1_1161)">
<path fill-rule="evenodd" clip-rule="evenodd" d="M16.9976 13.5C14.5176 13.5 12.4996 15.518 12.4996 17.998V25.175C12.4996 27.655 14.5176 29.673 16.9976 29.673H25.6416C28.1216 29.673 30.1386 27.655 30.1386 25.175V17.998C30.1386 15.518 28.1216 13.5 25.6416 13.5H16.9976ZM25.6416 31.173H16.9976C13.6906 31.173 10.9996 28.482 10.9996 25.175V17.998C10.9996 14.69 13.6906 12 16.9976 12H25.6416C28.9486 12 31.6386 14.69 31.6386 17.998V25.175C31.6386 28.482 28.9486 31.173 25.6416 31.173Z" fill="#199A8E"/>
</g>
<path fill-rule="evenodd" clip-rule="evenodd" d="M21.6846 18.0381H16.2856C15.8716 18.0381 15.5356 17.7021 15.5356 17.2881C15.5356 16.8741 15.8716 16.5381 16.2856 16.5381H21.6846C22.0986 16.5381 22.4346 16.8741 22.4346 17.2881C22.4346 17.7021 22.0986 18.0381 21.6846 18.0381Z" fill="#199A8E"/>
</svg>
